<svg width="128" height="128" viewBox="0 0 128 128" fill="none" xmlns="http://www.w3.org/2000/svg">
  <rect width="128" height="128" rx="24" fill="#0B0F19"/>
  <circle cx="64" cy="54" r="28" fill="#F3F4F6" opacity="0.96"/>
  <path d="M40 33L31 22L34 39" fill="#F3F4F6"/>
  <path d="M88 33L97 22L94 39" fill="#F3F4F6"/>
  <path d="M44 39C49 28 56 22 64 22C72 22 79 28 84 39" stroke="#1F2937" stroke-width="4" stroke-linecap="round"/>
  <path d="M34 48C38 39 44 32 51 28" stroke="#B45309" stroke-width="4" stroke-linecap="round"/>
  <path d="M94 48C90 39 84 32 77 28" stroke="#B45309" stroke-width="4" stroke-linecap="round"/>
  <path d="M30 58C30 44 35 33 44 26" stroke="#F59E0B" stroke-width="6" stroke-linecap="round"/>
  <path d="M98 58C98 44 93 33 84 26" stroke="#F59E0B" stroke-width="6" stroke-linecap="round"/>
  <path d="M36 69C29 61 25 50 25 40" stroke="#D97706" stroke-width="6" stroke-linecap="round"/>
  <path d="M92 69C99 61 103 50 103 40" stroke="#D97706" stroke-width="6" stroke-linecap="round"/>
  <path d="M46 64C50 68 56 71 64 71C72 71 78 68 82 64" stroke="#1F2937" stroke-width="4" stroke-linecap="round"/>
  <circle cx="52" cy="52" r="3.4" fill="#111827"/>
  <circle cx="76" cy="52" r="3.4" fill="#111827"/>
  <path d="M60 56L64 60L68 56" stroke="#111827" stroke-width="3.5" stroke-linecap="round" stroke-linejoin="round"/>
  <path d="M63 60C60 63 57 65 52 66" stroke="#111827" stroke-width="3" stroke-linecap="round"/>
  <path d="M65 60C68 63 71 65 76 66" stroke="#111827" stroke-width="3" stroke-linecap="round"/>
  <path d="M18 90C28 75 39 63 53 56C67 50 82 49 96 53C106 56 114 62 120 71" stroke="#9CA3AF" stroke-width="6" stroke-linecap="round"/>
  <path d="M22 89C34 70 48 57 63 52C78 47 93 50 108 61" stroke="#FFFFFF" stroke-width="5" stroke-linecap="round" opacity="0.9"/>
  <path d="M24 92H108" stroke="#171923" stroke-width="7" stroke-linecap="round"/>
  <path d="M31 92C42 99 53 102 64 101C76 100 88 95 98 88" stroke="#FFFFFF" stroke-width="4" stroke-linecap="round" opacity="0.58"/>
</svg>