<svg width="16" height="16" viewBox="0 0 128 128" fill="none" xmlns="http://www.w3.org/2000/svg">
  <rect width="128" height="128" rx="24" fill="#0B0F19"/>
  <circle cx="64" cy="54" r="28" fill="#F3F4F6" opacity="0.96"/>
  <path d="M40 33L31 22L34 39" fill="#F3F4F6"/>
  <path d="M88 33L97 22L94 39" fill="#F3F4F6"/>
  <path d="M44 39C49 28 56 22 64 22C72 22 79 28 84 39" stroke="#1F2937" stroke-width="4" stroke-linecap="round"/>
  <path d="M30 58C30 44 35 33 44 26" stroke="#F59E0B" stroke-width="6" stroke-linecap="round"/>
  <path d="M98 58C98 44 93 33 84 26" stroke="#F59E0B" stroke-width="6" stroke-linecap="round"/>
  <path d="M46 64C50 68 56 71 64 71C72 71 78 68 82 64" stroke="#1F2937" stroke-width="4" stroke-linecap="round"/>
  <circle cx="52" cy="52" r="3.4" fill="#111827"/>
  <circle cx="76" cy="52" r="3.4" fill="#111827"/>
  <path d="M60 56L64 60L68 56" stroke="#111827" stroke-width="3.5" stroke-linecap="round" stroke-linejoin="round"/>
</svg>